# xmcd
#
# Track frame offsets:
#	182
#	11042
#	20892
#	31535
#	44997
#	57410
#	72862
#	84122
#	94555
#	107595
#	120935
#	130662
#	144360
#	155832
#	165750
#	183417
#	192970
#	207017
#	220057
#	226797
#
# Disc length: 3193
#
# Revision: 1
# Processed by: cddbd v1.5.1PL0 Copyright (c) Steve Scherf et al.
# Submitted via: dBpowerAMP V4.0
# Normalized: r0:DSETVAR1,TDELIM( - )
#
DISCID=fe0c7714
DTITLE=Various Artist - Country and Western originals vol 1
DYEAR=1989
DGENRE=Country
TTITLE0=Jones George - Tender tears
TTITLE1=Dudley Dave - Six days on the road
TTITLE2=Jennings Waylon - Sally was a good old girl
TTITLE3=Dean Jimmy - Big bad John
TTITLE4=Rogers Kenny - Reuben James
TTITLE5=Baily Reggy - Your creating heart
TTITLE6=Locklin Hank - Unknown
TTITLE7=Belew Carl - Am I that easy to forget
TTITLE8=Husky Ferlin - Country music is here to stay
TTITLE9=Page Patti - Rock Island Lone
TTITLE10=Cash Johnny - Rock Island line
TTITLE11=Kingston Trio - Tom Dooley
TTITLE12=Fender Freddy - Before the next teardrop falls
TTITLE13=Owens Buck - Tythm and booze
TTITLE14=Vernon kenny - polk salad Annie
TTITLE15=Miller ned - From jack to a king
TTITLE16=Thomas B.J. - I'm so lonesome i could cry
TTITLE17=Jackson Stonewall - I wasshed my hands in muddy water
TTITLE18=Robbins Marty - Maybellene
TTITLE19=Parton Dolly - Little blossom
EXTD=
EXTT0=
EXTT1=
EXTT2=
EXTT3=
EXTT4=
EXTT5=
EXTT6=
EXTT7=
EXTT8=
EXTT9=
EXTT10=
EXTT11=
EXTT12=
EXTT13=
EXTT14=
EXTT15=
EXTT16=
EXTT17=
EXTT18=
EXTT19=
PLAYORDER=
